<?xml version="1.0" encoding="utf-8" standalone="no"?>
<!DOCTYPE svg PUBLIC "-//W3C//DTD SVG 1.1//EN"
  "http://www.w3.org/Graphics/SVG/1.1/DTD/svg11.dtd">
<svg xmlns:xlink="http://www.w3.org/1999/xlink" width="864pt" height="432pt" viewBox="0 0 864 432" xmlns="http://www.w3.org/2000/svg" version="1.1">
 <metadata>
  <rdf:RDF xmlns:dc="http://purl.org/dc/elements/1.1/" xmlns:cc="http://creativecommons.org/ns#" xmlns:rdf="http://www.w3.org/1999/02/22-rdf-syntax-ns#">
   <cc:Work>
    <dc:type rdf:resource="http://purl.org/dc/dcmitype/StillImage"/>
    <dc:date>2025-10-07T18:14:13.644870</dc:date>
    <dc:format>image/svg+xml</dc:format>
    <dc:creator>
     <cc:Agent>
      <dc:title>Matplotlib v3.10.6, https://matplotlib.org/</dc:title>
     </cc:Agent>
    </dc:creator>
   </cc:Work>
  </rdf:RDF>
 </metadata>
 <defs>
  <style type="text/css">*{stroke-linejoin: round; stroke-linecap: butt}</style>
 </defs>
 <g id="figure_1">
  <g id="patch_1">
   <path d="M 0 432 
L 864 432 
L 864 0 
L 0 0 
L 0 432 
z
" style="fill: none"/>
  </g>
  <g id="axes_1">
   <g id="patch_2">
    <path d="M 71.369231 204.873077 
L 452.974615 204.873077 
L 452.974615 57.396923 
L 71.369231 57.396923 
L 71.369231 204.873077 
z
" style="fill: none"/>
   </g>
   <g id="matplotlib.axis_1">
    <g id="xtick_1">
     <g id="line2d_1">
      <defs>
       <path id="mbfabdaad50" d="M 0 0 
L 0 3.5 
" style="stroke: #000000; stroke-width: 0.8"/>
      </defs>
      <g>
       <use xlink:href="#mbfabdaad50" x="88.71493" y="204.873077" style="stroke: #000000; stroke-width: 0.8"/>
      </g>
     </g>
    </g>
    <g id="xtick_2">
     <g id="line2d_2">
      <g>
       <use xlink:href="#mbfabdaad50" x="158.097727" y="204.873077" style="stroke: #000000; stroke-width: 0.8"/>
      </g>
     </g>
    </g>
    <g id="xtick_3">
     <g id="line2d_3">
      <g>
       <use xlink:href="#mbfabdaad50" x="227.480524" y="204.873077" style="stroke: #000000; stroke-width: 0.8"/>
      </g>
     </g>
    </g>
    <g id="xtick_4">
     <g id="line2d_4">
      <g>
       <use xlink:href="#mbfabdaad50" x="296.863322" y="204.873077" style="stroke: #000000; stroke-width: 0.8"/>
      </g>
     </g>
    </g>
    <g id="xtick_5">
     <g id="line2d_5">
      <g>
       <use xlink:href="#mbfabdaad50" x="366.246119" y="204.873077" style="stroke: #000000; stroke-width: 0.8"/>
      </g>
     </g>
    </g>
    <g id="xtick_6">
     <g id="line2d_6">
      <g>
       <use xlink:href="#mbfabdaad50" x="435.628916" y="204.873077" style="stroke: #000000; stroke-width: 0.8"/>
      </g>
     </g>
    </g>
   </g>
   <g id="matplotlib.axis_2">
    <g id="ytick_1">
     <g id="line2d_7">
      <defs>
       <path id="me78964cb2c" d="M 0 0 
L -3.5 0 
" style="stroke: #000000; stroke-width: 0.8"/>
      </defs>
      <g>
       <use xlink:href="#me78964cb2c" x="71.369231" y="190.940666" style="stroke: #000000; stroke-width: 0.8"/>
      </g>
     </g>
     <g id="text_1">
      <!-- 0.000 -->
      <g transform="translate(30.015481 195.499729) scale(0.12 -0.12)">
       <defs>
        <path id="DejaVuSans-30" d="M 2034 4250 
Q 1547 4250 1301 3770 
Q 1056 3291 1056 2328 
Q 1056 1369 1301 889 
Q 1547 409 2034 409 
Q 2525 409 2770 889 
Q 3016 1369 3016 2328 
Q 3016 3291 2770 3770 
Q 2525 4250 2034 4250 
z
M 2034 4750 
Q 2819 4750 3233 4129 
Q 3647 3509 3647 2328 
Q 3647 1150 3233 529 
Q 2819 -91 2034 -91 
Q 1250 -91 836 529 
Q 422 1150 422 2328 
Q 422 3509 836 4129 
Q 1250 4750 2034 4750 
z
" transform="scale(0.015625)"/>
        <path id="DejaVuSans-2e" d="M 684 794 
L 1344 794 
L 1344 0 
L 684 0 
L 684 794 
z
" transform="scale(0.015625)"/>
       </defs>
       <use xlink:href="#DejaVuSans-30"/>
       <use xlink:href="#DejaVuSans-2e" transform="translate(63.623047 0)"/>
       <use xlink:href="#DejaVuSans-30" transform="translate(95.410156 0)"/>
       <use xlink:href="#DejaVuSans-30" transform="translate(159.033203 0)"/>
       <use xlink:href="#DejaVuSans-30" transform="translate(222.65625 0)"/>
      </g>
     </g>
    </g>
    <g id="ytick_2">
     <g id="line2d_8">
      <g>
       <use xlink:href="#me78964cb2c" x="71.369231" y="161.889704" style="stroke: #000000; stroke-width: 0.8"/>
      </g>
     </g>
     <g id="text_2">
      <!-- 0.025 -->
      <g transform="translate(30.015481 166.448766) scale(0.12 -0.12)">
       <defs>
        <path id="DejaVuSans-32" d="M 1228 531 
L 3431 531 
L 3431 0 
L 469 0 
L 469 531 
Q 828 903 1448 1529 
Q 2069 2156 2228 2338 
Q 2531 2678 2651 2914 
Q 2772 3150 2772 3378 
Q 2772 3750 2511 3984 
Q 2250 4219 1831 4219 
Q 1534 4219 1204 4116 
Q 875 4013 500 3803 
L 500 4441 
Q 881 4594 1212 4672 
Q 1544 4750 1819 4750 
Q 2544 4750 2975 4387 
Q 3406 4025 3406 3419 
Q 3406 3131 3298 2873 
Q 3191 2616 2906 2266 
Q 2828 2175 2409 1742 
Q 1991 1309 1228 531 
z
" transform="scale(0.015625)"/>
        <path id="DejaVuSans-35" d="M 691 4666 
L 3169 4666 
L 3169 4134 
L 1269 4134 
L 1269 2991 
Q 1406 3038 1543 3061 
Q 1681 3084 1819 3084 
Q 2600 3084 3056 2656 
Q 3513 2228 3513 1497 
Q 3513 744 3044 326 
Q 2575 -91 1722 -91 
Q 1428 -91 1123 -41 
Q 819 9 494 109 
L 494 744 
Q 775 591 1075 516 
Q 1375 441 1709 441 
Q 2250 441 2565 725 
Q 2881 1009 2881 1497 
Q 2881 1984 2565 2268 
Q 2250 2553 1709 2553 
Q 1456 2553 1204 2497 
Q 953 2441 691 2322 
L 691 4666 
z
" transform="scale(0.015625)"/>
       </defs>
       <use xlink:href="#DejaVuSans-30"/>
       <use xlink:href="#DejaVuSans-2e" transform="translate(63.623047 0)"/>
       <use xlink:href="#DejaVuSans-30" transform="translate(95.410156 0)"/>
       <use xlink:href="#DejaVuSans-32" transform="translate(159.033203 0)"/>
       <use xlink:href="#DejaVuSans-35" transform="translate(222.65625 0)"/>
      </g>
     </g>
    </g>
    <g id="ytick_3">
     <g id="line2d_9">
      <g>
       <use xlink:href="#me78964cb2c" x="71.369231" y="132.838741" style="stroke: #000000; stroke-width: 0.8"/>
      </g>
     </g>
     <g id="text_3">
      <!-- 0.050 -->
      <g transform="translate(30.015481 137.397803) scale(0.12 -0.12)">
       <use xlink:href="#DejaVuSans-30"/>
       <use xlink:href="#DejaVuSans-2e" transform="translate(63.623047 0)"/>
       <use xlink:href="#DejaVuSans-30" transform="translate(95.410156 0)"/>
       <use xlink:href="#DejaVuSans-35" transform="translate(159.033203 0)"/>
       <use xlink:href="#DejaVuSans-30" transform="translate(222.65625 0)"/>
      </g>
     </g>
    </g>
    <g id="ytick_4">
     <g id="line2d_10">
      <g>
       <use xlink:href="#me78964cb2c" x="71.369231" y="103.787778" style="stroke: #000000; stroke-width: 0.8"/>
      </g>
     </g>
     <g id="text_4">
      <!-- 0.075 -->
      <g transform="translate(30.015481 108.346841) scale(0.12 -0.12)">
       <defs>
        <path id="DejaVuSans-37" d="M 525 4666 
L 3525 4666 
L 3525 4397 
L 1831 0 
L 1172 0 
L 2766 4134 
L 525 4134 
L 525 4666 
z
" transform="scale(0.015625)"/>
       </defs>
       <use xlink:href="#DejaVuSans-30"/>
       <use xlink:href="#DejaVuSans-2e" transform="translate(63.623047 0)"/>
       <use xlink:href="#DejaVuSans-30" transform="translate(95.410156 0)"/>
       <use xlink:href="#DejaVuSans-37" transform="translate(159.033203 0)"/>
       <use xlink:href="#DejaVuSans-35" transform="translate(222.65625 0)"/>
      </g>
     </g>
    </g>
    <g id="ytick_5">
     <g id="line2d_11">
      <g>
       <use xlink:href="#me78964cb2c" x="71.369231" y="74.736815" style="stroke: #000000; stroke-width: 0.8"/>
      </g>
     </g>
     <g id="text_5">
      <!-- 0.100 -->
      <g transform="translate(30.015481 79.295878) scale(0.12 -0.12)">
       <defs>
        <path id="DejaVuSans-31" d="M 794 531 
L 1825 531 
L 1825 4091 
L 703 3866 
L 703 4441 
L 1819 4666 
L 2450 4666 
L 2450 531 
L 3481 531 
L 3481 0 
L 794 0 
L 794 531 
z
" transform="scale(0.015625)"/>
       </defs>
       <use xlink:href="#DejaVuSans-30"/>
       <use xlink:href="#DejaVuSans-2e" transform="translate(63.623047 0)"/>
       <use xlink:href="#DejaVuSans-31" transform="translate(95.410156 0)"/>
       <use xlink:href="#DejaVuSans-30" transform="translate(159.033203 0)"/>
       <use xlink:href="#DejaVuSans-30" transform="translate(222.65625 0)"/>
      </g>
     </g>
    </g>
    <g id="text_6">
     <!-- $\lambda_{\min}$ -->
     <g transform="translate(23.519856 142.775) rotate(-90) scale(0.12 -0.12)">
      <defs>
       <path id="DejaVuSans-Oblique-3bb" d="M 2350 4316 
L 3125 0 
L 2516 0 
L 2038 2588 
L 328 0 
L -281 0 
L 1903 3356 
L 1794 3975 
Q 1725 4369 1391 4369 
L 1091 4369 
L 1184 4863 
L 1550 4856 
Q 2253 4847 2350 4316 
z
" transform="scale(0.015625)"/>
       <path id="DejaVuSans-6d" d="M 3328 2828 
Q 3544 3216 3844 3400 
Q 4144 3584 4550 3584 
Q 5097 3584 5394 3201 
Q 5691 2819 5691 2113 
L 5691 0 
L 5113 0 
L 5113 2094 
Q 5113 2597 4934 2840 
Q 4756 3084 4391 3084 
Q 3944 3084 3684 2787 
Q 3425 2491 3425 1978 
L 3425 0 
L 2847 0 
L 2847 2094 
Q 2847 2600 2669 2842 
Q 2491 3084 2119 3084 
Q 1678 3084 1418 2786 
Q 1159 2488 1159 1978 
L 1159 0 
L 581 0 
L 581 3500 
L 1159 3500 
L 1159 2956 
Q 1356 3278 1631 3431 
Q 1906 3584 2284 3584 
Q 2666 3584 2933 3390 
Q 3200 3197 3328 2828 
z
" transform="scale(0.015625)"/>
       <path id="DejaVuSans-69" d="M 603 3500 
L 1178 3500 
L 1178 0 
L 603 0 
L 603 3500 
z
M 603 4863 
L 1178 4863 
L 1178 4134 
L 603 4134 
L 603 4863 
z
" transform="scale(0.015625)"/>
       <path id="DejaVuSans-6e" d="M 3513 2113 
L 3513 0 
L 2938 0 
L 2938 2094 
Q 2938 2591 2744 2837 
Q 2550 3084 2163 3084 
Q 1697 3084 1428 2787 
Q 1159 2491 1159 1978 
L 1159 0 
L 581 0 
L 581 3500 
L 1159 3500 
L 1159 2956 
Q 1366 3272 1645 3428 
Q 1925 3584 2291 3584 
Q 2894 3584 3203 3211 
Q 3513 2838 3513 2113 
z
" transform="scale(0.015625)"/>
      </defs>
      <use xlink:href="#DejaVuSans-Oblique-3bb" transform="translate(0 0.015625)"/>
      <use xlink:href="#DejaVuSans-6d" transform="translate(59.179688 -16.390625) scale(0.7)"/>
      <use xlink:href="#DejaVuSans-69" transform="translate(127.368164 -16.390625) scale(0.7)"/>
      <use xlink:href="#DejaVuSans-6e" transform="translate(146.816406 -16.390625) scale(0.7)"/>
     </g>
    </g>
   </g>
   <g id="line2d_12">
    <path d="M 88.71493 190.940666 
L 93.348172 191.653719 
L 96.243948 191.855851 
L 99.139724 191.789781 
L 102.0355 191.475551 
L 106.668742 190.689413 
L 111.301984 189.986834 
L 114.776916 189.71375 
L 118.831002 189.647464 
L 124.622555 189.581591 
L 128.097486 189.306812 
L 132.151573 188.721669 
L 138.52228 187.754243 
L 141.418056 187.5704 
L 144.313833 187.641356 
L 147.209609 187.94647 
L 157.055248 189.270657 
L 159.951024 189.285702 
L 162.8468 189.056682 
L 166.900887 188.46181 
L 172.692439 187.615964 
L 176.167371 187.361833 
L 180.221457 187.313156 
L 186.592165 187.27726 
L 190.067096 187.018027 
L 194.121183 186.470348 
L 199.912735 185.653268 
L 202.808511 185.464389 
L 205.704288 185.511177 
L 208.600064 185.781236 
L 219.024858 187.072893 
L 221.920634 187.063282 
L 224.81641 186.830279 
L 229.449652 186.179854 
L 234.082894 185.569998 
L 237.557826 185.332834 
L 241.611912 185.298722 
L 248.561775 185.293425 
L 252.036706 185.048092 
L 256.669948 184.452488 
L 261.882345 183.799305 
L 264.778122 183.648097 
L 267.673898 183.7184 
L 271.148829 184.06487 
L 279.836158 185.127968 
L 282.731934 185.185707 
L 285.62771 185.026964 
L 289.681797 184.544892 
L 296.052504 183.763935 
L 299.527436 183.57699 
L 304.160678 183.591527 
L 309.95223 183.615794 
L 313.427161 183.416818 
L 318.060403 182.885355 
L 323.851956 182.224162 
L 326.747732 182.10664 
L 329.643508 182.196745 
L 333.118439 182.541571 
L 341.226613 183.485024 
L 344.122389 183.559361 
L 347.018165 183.430694 
L 351.072252 182.998557 
L 357.442959 182.273626 
L 360.917891 182.098793 
L 365.551133 182.124439 
L 371.92184 182.17434 
L 375.396772 181.98496 
L 380.030013 181.488231 
L 385.242411 180.93584 
L 388.717342 180.809523 
L 391.613118 180.915914 
L 395.667205 181.327386 
L 402.037912 182.048051 
L 405.512844 182.175902 
L 408.987775 182.033154 
L 413.621017 181.552515 
L 419.412569 180.975634 
L 423.466656 180.838843 
L 429.258208 180.947566 
L 433.89145 180.96253 
L 435.628916 180.8952 
L 435.628916 180.8952 
" clip-path="url(#p11aefe8f84)" style="fill: none; stroke: #d62728; stroke-width: 2; stroke-linecap: square"/>
   </g>
   <g id="line2d_13">
    <path d="M 71.369231 190.940666 
L 452.974615 190.940666 
" clip-path="url(#p11aefe8f84)" style="fill: none; stroke-dasharray: 1,1.65; stroke-dashoffset: 0; stroke: #000000"/>
   </g>
   <g id="patch_3">
    <path d="M 71.369231 204.873077 
L 71.369231 57.396923 
" style="fill: none; stroke: #000000; stroke-width: 0.8; stroke-linejoin: miter; stroke-linecap: square"/>
   </g>
   <g id="patch_4">
    <path d="M 452.974615 204.873077 
L 452.974615 57.396923 
" style="fill: none; stroke: #000000; stroke-width: 0.8; stroke-linejoin: miter; stroke-linecap: square"/>
   </g>
   <g id="patch_5">
    <path d="M 71.369231 204.873077 
L 452.974615 204.873077 
" style="fill: none; stroke: #000000; stroke-width: 0.8; stroke-linejoin: miter; stroke-linecap: square"/>
   </g>
   <g id="patch_6">
    <path d="M 71.369231 57.396923 
L 452.974615 57.396923 
" style="fill: none; stroke: #000000; stroke-width: 0.8; stroke-linejoin: miter; stroke-linecap: square"/>
   </g>
   <g id="text_7">
    <!-- Drude-Lorentz: T=0.05, λ=0.02 -->
    <g transform="translate(148.743798 51.396923) scale(0.144 -0.144)">
     <defs>
      <path id="DejaVuSans-44" d="M 1259 4147 
L 1259 519 
L 2022 519 
Q 2988 519 3436 956 
Q 3884 1394 3884 2338 
Q 3884 3275 3436 3711 
Q 2988 4147 2022 4147 
L 1259 4147 
z
M 628 4666 
L 1925 4666 
Q 3281 4666 3915 4102 
Q 4550 3538 4550 2338 
Q 4550 1131 3912 565 
Q 3275 0 1925 0 
L 628 0 
L 628 4666 
z
" transform="scale(0.015625)"/>
      <path id="DejaVuSans-72" d="M 2631 2963 
Q 2534 3019 2420 3045 
Q 2306 3072 2169 3072 
Q 1681 3072 1420 2755 
Q 1159 2438 1159 1844 
L 1159 0 
L 581 0 
L 581 3500 
L 1159 3500 
L 1159 2956 
Q 1341 3275 1631 3429 
Q 1922 3584 2338 3584 
Q 2397 3584 2469 3576 
Q 2541 3569 2628 3553 
L 2631 2963 
z
" transform="scale(0.015625)"/>
      <path id="DejaVuSans-75" d="M 544 1381 
L 544 3500 
L 1119 3500 
L 1119 1403 
Q 1119 906 1312 657 
Q 1506 409 1894 409 
Q 2359 409 2629 706 
Q 2900 1003 2900 1516 
L 2900 3500 
L 3475 3500 
L 3475 0 
L 2900 0 
L 2900 538 
Q 2691 219 2414 64 
Q 2138 -91 1772 -91 
Q 1169 -91 856 284 
Q 544 659 544 1381 
z
M 1991 3584 
L 1991 3584 
z
" transform="scale(0.015625)"/>
      <path id="DejaVuSans-64" d="M 2906 2969 
L 2906 4863 
L 3481 4863 
L 3481 0 
L 2906 0 
L 2906 525 
Q 2725 213 2448 61 
Q 2172 -91 1784 -91 
Q 1150 -91 751 415 
Q 353 922 353 1747 
Q 353 2572 751 3078 
Q 1150 3584 1784 3584 
Q 2172 3584 2448 3432 
Q 2725 3281 2906 2969 
z
M 947 1747 
Q 947 1113 1208 752 
Q 1469 391 1925 391 
Q 2381 391 2643 752 
Q 2906 1113 2906 1747 
Q 2906 2381 2643 2742 
Q 2381 3103 1925 3103 
Q 1469 3103 1208 2742 
Q 947 2381 947 1747 
z
" transform="scale(0.015625)"/>
      <path id="DejaVuSans-65" d="M 3597 1894 
L 3597 1613 
L 953 1613 
Q 991 1019 1311 708 
Q 1631 397 2203 397 
Q 2534 397 2845 478 
Q 3156 559 3463 722 
L 3463 178 
Q 3153 47 2828 -22 
Q 2503 -91 2169 -91 
Q 1331 -91 842 396 
Q 353 884 353 1716 
Q 353 2575 817 3079 
Q 1281 3584 2069 3584 
Q 2775 3584 3186 3129 
Q 3597 2675 3597 1894 
z
M 3022 2063 
Q 3016 2534 2758 2815 
Q 2500 3097 2075 3097 
Q 1594 3097 1305 2825 
Q 1016 2553 972 2059 
L 3022 2063 
z
" transform="scale(0.015625)"/>
      <path id="DejaVuSans-2d" d="M 313 2009 
L 1997 2009 
L 1997 1497 
L 313 1497 
L 313 2009 
z
" transform="scale(0.015625)"/>
      <path id="DejaVuSans-4c" d="M 628 4666 
L 1259 4666 
L 1259 531 
L 3531 531 
L 3531 0 
L 628 0 
L 628 4666 
z
" transform="scale(0.015625)"/>
      <path id="DejaVuSans-6f" d="M 1959 3097 
Q 1497 3097 1228 2736 
Q 959 2375 959 1747 
Q 959 1119 1226 758 
Q 1494 397 1959 397 
Q 2419 397 2687 759 
Q 2956 1122 2956 1747 
Q 2956 2369 2687 2733 
Q 2419 3097 1959 3097 
z
M 1959 3584 
Q 2709 3584 3137 3096 
Q 3566 2609 3566 1747 
Q 3566 888 3137 398 
Q 2709 -91 1959 -91 
Q 1206 -91 779 398 
Q 353 888 353 1747 
Q 353 2609 779 3096 
Q 1206 3584 1959 3584 
z
" transform="scale(0.015625)"/>
      <path id="DejaVuSans-74" d="M 1172 4494 
L 1172 3500 
L 2356 3500 
L 2356 3053 
L 1172 3053 
L 1172 1153 
Q 1172 725 1289 603 
Q 1406 481 1766 481 
L 2356 481 
L 2356 0 
L 1766 0 
Q 1100 0 847 248 
Q 594 497 594 1153 
L 594 3053 
L 172 3053 
L 172 3500 
L 594 3500 
L 594 4494 
L 1172 4494 
z
" transform="scale(0.015625)"/>
      <path id="DejaVuSans-7a" d="M 353 3500 
L 3084 3500 
L 3084 2975 
L 922 459 
L 3084 459 
L 3084 0 
L 275 0 
L 275 525 
L 2438 3041 
L 353 3041 
L 353 3500 
z
" transform="scale(0.015625)"/>
      <path id="DejaVuSans-3a" d="M 750 794 
L 1409 794 
L 1409 0 
L 750 0 
L 750 794 
z
M 750 3309 
L 1409 3309 
L 1409 2516 
L 750 2516 
L 750 3309 
z
" transform="scale(0.015625)"/>
      <path id="DejaVuSans-20" transform="scale(0.015625)"/>
      <path id="DejaVuSans-54" d="M -19 4666 
L 3928 4666 
L 3928 4134 
L 2272 4134 
L 2272 0 
L 1638 0 
L 1638 4134 
L -19 4134 
L -19 4666 
z
" transform="scale(0.015625)"/>
      <path id="DejaVuSans-3d" d="M 678 2906 
L 4684 2906 
L 4684 2381 
L 678 2381 
L 678 2906 
z
M 678 1631 
L 4684 1631 
L 4684 1100 
L 678 1100 
L 678 1631 
z
" transform="scale(0.015625)"/>
      <path id="DejaVuSans-2c" d="M 750 794 
L 1409 794 
L 1409 256 
L 897 -744 
L 494 -744 
L 750 256 
L 750 794 
z
" transform="scale(0.015625)"/>
      <path id="DejaVuSans-3bb" d="M 1981 4316 
L 3597 0 
L 2988 0 
L 2006 2588 
L 800 0 
L 191 0 
L 1725 3356 
L 1494 3975 
Q 1347 4369 1013 4369 
L 713 4369 
L 713 4863 
L 1078 4856 
Q 1784 4847 1981 4316 
z
" transform="scale(0.015625)"/>
     </defs>
     <use xlink:href="#DejaVuSans-44"/>
     <use xlink:href="#DejaVuSans-72" transform="translate(77.001953 0)"/>
     <use xlink:href="#DejaVuSans-75" transform="translate(118.115234 0)"/>
     <use xlink:href="#DejaVuSans-64" transform="translate(181.494141 0)"/>
     <use xlink:href="#DejaVuSans-65" transform="translate(244.970703 0)"/>
     <use xlink:href="#DejaVuSans-2d" transform="translate(306.494141 0)"/>
     <use xlink:href="#DejaVuSans-4c" transform="translate(342.578125 0)"/>
     <use xlink:href="#DejaVuSans-6f" transform="translate(396.541016 0)"/>
     <use xlink:href="#DejaVuSans-72" transform="translate(457.722656 0)"/>
     <use xlink:href="#DejaVuSans-65" transform="translate(496.585938 0)"/>
     <use xlink:href="#DejaVuSans-6e" transform="translate(558.109375 0)"/>
     <use xlink:href="#DejaVuSans-74" transform="translate(621.488281 0)"/>
     <use xlink:href="#DejaVuSans-7a" transform="translate(660.697266 0)"/>
     <use xlink:href="#DejaVuSans-3a" transform="translate(713.1875 0)"/>
     <use xlink:href="#DejaVuSans-20" transform="translate(746.878906 0)"/>
     <use xlink:href="#DejaVuSans-54" transform="translate(778.666016 0)"/>
     <use xlink:href="#DejaVuSans-3d" transform="translate(839.75 0)"/>
     <use xlink:href="#DejaVuSans-30" transform="translate(923.539062 0)"/>
     <use xlink:href="#DejaVuSans-2e" transform="translate(987.162109 0)"/>
     <use xlink:href="#DejaVuSans-30" transform="translate(1018.949219 0)"/>
     <use xlink:href="#DejaVuSans-35" transform="translate(1082.572266 0)"/>
     <use xlink:href="#DejaVuSans-2c" transform="translate(1146.195312 0)"/>
     <use xlink:href="#DejaVuSans-20" transform="translate(1177.982422 0)"/>
     <use xlink:href="#DejaVuSans-3bb" transform="translate(1209.769531 0)"/>
     <use xlink:href="#DejaVuSans-3d" transform="translate(1268.949219 0)"/>
     <use xlink:href="#DejaVuSans-30" transform="translate(1352.738281 0)"/>
     <use xlink:href="#DejaVuSans-2e" transform="translate(1416.361328 0)"/>
     <use xlink:href="#DejaVuSans-30" transform="translate(1448.148438 0)"/>
     <use xlink:href="#DejaVuSans-32" transform="translate(1511.771484 0)"/>
    </g>
   </g>
  </g>
  <g id="axes_2">
   <g id="patch_7">
    <path d="M 469.434615 204.873077 
L 851.04 204.873077 
L 851.04 57.396923 
L 469.434615 57.396923 
L 469.434615 204.873077 
z
" style="fill: none"/>
   </g>
   <g id="matplotlib.axis_3">
    <g id="xtick_7">
     <g id="line2d_14">
      <g>
       <use xlink:href="#mbfabdaad50" x="486.780315" y="204.873077" style="stroke: #000000; stroke-width: 0.8"/>
      </g>
     </g>
    </g>
    <g id="xtick_8">
     <g id="line2d_15">
      <g>
       <use xlink:href="#mbfabdaad50" x="556.163112" y="204.873077" style="stroke: #000000; stroke-width: 0.8"/>
      </g>
     </g>
    </g>
    <g id="xtick_9">
     <g id="line2d_16">
      <g>
       <use xlink:href="#mbfabdaad50" x="625.545909" y="204.873077" style="stroke: #000000; stroke-width: 0.8"/>
      </g>
     </g>
    </g>
    <g id="xtick_10">
     <g id="line2d_17">
      <g>
       <use xlink:href="#mbfabdaad50" x="694.928706" y="204.873077" style="stroke: #000000; stroke-width: 0.8"/>
      </g>
     </g>
    </g>
    <g id="xtick_11">
     <g id="line2d_18">
      <g>
       <use xlink:href="#mbfabdaad50" x="764.311503" y="204.873077" style="stroke: #000000; stroke-width: 0.8"/>
      </g>
     </g>
    </g>
    <g id="xtick_12">
     <g id="line2d_19">
      <g>
       <use xlink:href="#mbfabdaad50" x="833.694301" y="204.873077" style="stroke: #000000; stroke-width: 0.8"/>
      </g>
     </g>
    </g>
   </g>
   <g id="matplotlib.axis_4">
    <g id="ytick_6">
     <g id="line2d_20">
      <g>
       <use xlink:href="#me78964cb2c" x="469.434615" y="190.940666" style="stroke: #000000; stroke-width: 0.8"/>
      </g>
     </g>
    </g>
    <g id="ytick_7">
     <g id="line2d_21">
      <g>
       <use xlink:href="#me78964cb2c" x="469.434615" y="161.889704" style="stroke: #000000; stroke-width: 0.8"/>
      </g>
     </g>
    </g>
    <g id="ytick_8">
     <g id="line2d_22">
      <g>
       <use xlink:href="#me78964cb2c" x="469.434615" y="132.838741" style="stroke: #000000; stroke-width: 0.8"/>
      </g>
     </g>
    </g>
    <g id="ytick_9">
     <g id="line2d_23">
      <g>
       <use xlink:href="#me78964cb2c" x="469.434615" y="103.787778" style="stroke: #000000; stroke-width: 0.8"/>
      </g>
     </g>
    </g>
    <g id="ytick_10">
     <g id="line2d_24">
      <g>
       <use xlink:href="#me78964cb2c" x="469.434615" y="74.736815" style="stroke: #000000; stroke-width: 0.8"/>
      </g>
     </g>
    </g>
   </g>
   <g id="line2d_25">
    <path d="M 486.780315 190.940666 
L 492.571867 176.616847 
L 496.046798 167.24817 
L 501.259196 152.957229 
L 503.575817 147.369153 
L 505.313282 143.819073 
L 506.471593 141.829197 
L 507.629903 140.171079 
L 508.788214 138.857992 
L 509.946524 137.890993 
L 511.104835 137.258598 
L 512.263145 136.937572 
L 513.421456 136.893816 
L 514.579766 137.083982 
L 516.317232 137.697195 
L 519.213008 139.129975 
L 521.529629 140.154034 
L 523.267095 140.605456 
L 524.425405 140.690786 
L 525.583715 140.576958 
L 526.742026 140.251146 
L 527.900336 139.709058 
L 529.058647 138.954872 
L 530.216957 138.00013 
L 531.954423 136.231411 
L 533.691889 134.129847 
L 536.00851 130.968119 
L 545.854149 116.96332 
L 550.487391 111.087653 
L 556.858098 103.37171 
L 559.753874 100.130136 
L 562.070495 97.86001 
L 563.807961 96.444932 
L 565.545427 95.344335 
L 566.703737 94.810169 
L 567.862048 94.448049 
L 569.020358 94.263918 
L 570.178669 94.258724 
L 571.336979 94.428357 
L 572.49529 94.763694 
L 574.232755 95.545674 
L 575.970221 96.603325 
L 578.286842 98.300943 
L 583.499239 102.274258 
L 585.236705 103.350396 
L 586.97417 104.198539 
L 588.711636 104.783218 
L 590.449102 105.088831 
L 592.186568 105.117539 
L 593.924033 104.886861 
L 595.661499 104.426184 
L 597.97812 103.517424 
L 600.294741 102.358335 
L 603.769672 100.340428 
L 615.352777 93.357381 
L 618.248553 91.884157 
L 620.565174 90.893746 
L 622.881795 90.134168 
L 624.619261 89.752216 
L 626.356726 89.55592 
L 628.094192 89.561816 
L 629.831658 89.77843 
L 631.569124 90.204771 
L 633.306589 90.8294 
L 635.62321 91.93176 
L 638.518986 93.631399 
L 646.62716 98.682339 
L 648.943781 99.796167 
L 651.260402 100.646431 
L 653.577022 101.210864 
L 655.893643 101.491912 
L 658.210264 101.512263 
L 660.526885 101.308167 
L 663.422661 100.804547 
L 666.897593 99.952672 
L 679.639008 96.57308 
L 682.534784 96.142597 
L 685.43056 95.968883 
L 687.747181 96.046113 
L 690.063802 96.330036 
L 692.380423 96.820689 
L 695.276199 97.70133 
L 698.171976 98.82208 
L 702.805217 100.889449 
L 708.017615 103.151824 
L 710.913391 104.18942 
L 713.809167 104.992518 
L 716.704943 105.535607 
L 719.600719 105.82194 
L 722.496495 105.877676 
L 725.971427 105.699704 
L 730.604669 105.192004 
L 740.450308 104.004707 
L 743.925239 103.82099 
L 747.400171 103.864649 
L 750.295947 104.100646 
L 753.770878 104.628262 
L 757.24581 105.394999 
L 761.879052 106.677906 
L 771.145535 109.320773 
L 775.199622 110.18045 
L 778.674553 110.686212 
L 782.149485 110.97309 
L 786.203571 111.063173 
L 790.836813 110.929956 
L 805.315694 110.320573 
L 809.369781 110.440837 
L 813.423867 110.770685 
L 818.057109 111.390883 
L 823.848662 112.421156 
L 833.694301 114.204318 
L 833.694301 114.204318 
" clip-path="url(#pe5da08f37f)" style="fill: none; stroke: #d62728; stroke-width: 2; stroke-linecap: square"/>
   </g>
   <g id="line2d_26">
    <path d="M 469.434615 190.940666 
L 851.04 190.940666 
" clip-path="url(#pe5da08f37f)" style="fill: none; stroke-dasharray: 1,1.65; stroke-dashoffset: 0; stroke: #000000"/>
   </g>
   <g id="patch_8">
    <path d="M 469.434615 204.873077 
L 469.434615 57.396923 
" style="fill: none; stroke: #000000; stroke-width: 0.8; stroke-linejoin: miter; stroke-linecap: square"/>
   </g>
   <g id="patch_9">
    <path d="M 851.04 204.873077 
L 851.04 57.396923 
" style="fill: none; stroke: #000000; stroke-width: 0.8; stroke-linejoin: miter; stroke-linecap: square"/>
   </g>
   <g id="patch_10">
    <path d="M 469.434615 204.873077 
L 851.04 204.873077 
" style="fill: none; stroke: #000000; stroke-width: 0.8; stroke-linejoin: miter; stroke-linecap: square"/>
   </g>
   <g id="patch_11">
    <path d="M 469.434615 57.396923 
L 851.04 57.396923 
" style="fill: none; stroke: #000000; stroke-width: 0.8; stroke-linejoin: miter; stroke-linecap: square"/>
   </g>
   <g id="text_8">
    <!-- Drude-Lorentz: T=0.5, λ=0.08 -->
    <g transform="translate(551.390183 51.396923) scale(0.144 -0.144)">
     <defs>
      <path id="DejaVuSans-38" d="M 2034 2216 
Q 1584 2216 1326 1975 
Q 1069 1734 1069 1313 
Q 1069 891 1326 650 
Q 1584 409 2034 409 
Q 2484 409 2743 651 
Q 3003 894 3003 1313 
Q 3003 1734 2745 1975 
Q 2488 2216 2034 2216 
z
M 1403 2484 
Q 997 2584 770 2862 
Q 544 3141 544 3541 
Q 544 4100 942 4425 
Q 1341 4750 2034 4750 
Q 2731 4750 3128 4425 
Q 3525 4100 3525 3541 
Q 3525 3141 3298 2862 
Q 3072 2584 2669 2484 
Q 3125 2378 3379 2068 
Q 3634 1759 3634 1313 
Q 3634 634 3220 271 
Q 2806 -91 2034 -91 
Q 1263 -91 848 271 
Q 434 634 434 1313 
Q 434 1759 690 2068 
Q 947 2378 1403 2484 
z
M 1172 3481 
Q 1172 3119 1398 2916 
Q 1625 2713 2034 2713 
Q 2441 2713 2670 2916 
Q 2900 3119 2900 3481 
Q 2900 3844 2670 4047 
Q 2441 4250 2034 4250 
Q 1625 4250 1398 4047 
Q 1172 3844 1172 3481 
z
" transform="scale(0.015625)"/>
     </defs>
     <use xlink:href="#DejaVuSans-44"/>
     <use xlink:href="#DejaVuSans-72" transform="translate(77.001953 0)"/>
     <use xlink:href="#DejaVuSans-75" transform="translate(118.115234 0)"/>
     <use xlink:href="#DejaVuSans-64" transform="translate(181.494141 0)"/>
     <use xlink:href="#DejaVuSans-65" transform="translate(244.970703 0)"/>
     <use xlink:href="#DejaVuSans-2d" transform="translate(306.494141 0)"/>
     <use xlink:href="#DejaVuSans-4c" transform="translate(342.578125 0)"/>
     <use xlink:href="#DejaVuSans-6f" transform="translate(396.541016 0)"/>
     <use xlink:href="#DejaVuSans-72" transform="translate(457.722656 0)"/>
     <use xlink:href="#DejaVuSans-65" transform="translate(496.585938 0)"/>
     <use xlink:href="#DejaVuSans-6e" transform="translate(558.109375 0)"/>
     <use xlink:href="#DejaVuSans-74" transform="translate(621.488281 0)"/>
     <use xlink:href="#DejaVuSans-7a" transform="translate(660.697266 0)"/>
     <use xlink:href="#DejaVuSans-3a" transform="translate(713.1875 0)"/>
     <use xlink:href="#DejaVuSans-20" transform="translate(746.878906 0)"/>
     <use xlink:href="#DejaVuSans-54" transform="translate(778.666016 0)"/>
     <use xlink:href="#DejaVuSans-3d" transform="translate(839.75 0)"/>
     <use xlink:href="#DejaVuSans-30" transform="translate(923.539062 0)"/>
     <use xlink:href="#DejaVuSans-2e" transform="translate(987.162109 0)"/>
     <use xlink:href="#DejaVuSans-35" transform="translate(1018.949219 0)"/>
     <use xlink:href="#DejaVuSans-2c" transform="translate(1082.572266 0)"/>
     <use xlink:href="#DejaVuSans-20" transform="translate(1114.359375 0)"/>
     <use xlink:href="#DejaVuSans-3bb" transform="translate(1146.146484 0)"/>
     <use xlink:href="#DejaVuSans-3d" transform="translate(1205.326172 0)"/>
     <use xlink:href="#DejaVuSans-30" transform="translate(1289.115234 0)"/>
     <use xlink:href="#DejaVuSans-2e" transform="translate(1352.738281 0)"/>
     <use xlink:href="#DejaVuSans-30" transform="translate(1384.525391 0)"/>
     <use xlink:href="#DejaVuSans-38" transform="translate(1448.148438 0)"/>
    </g>
   </g>
  </g>
  <g id="axes_3">
   <g id="patch_12">
    <path d="M 71.369231 385.886154 
L 452.974615 385.886154 
L 452.974615 238.41 
L 71.369231 238.41 
L 71.369231 385.886154 
z
" style="fill: none"/>
   </g>
   <g id="matplotlib.axis_5">
    <g id="xtick_13">
     <g id="line2d_27">
      <g>
       <use xlink:href="#mbfabdaad50" x="88.71493" y="385.886154" style="stroke: #000000; stroke-width: 0.8"/>
      </g>
     </g>
     <g id="text_9">
      <!-- 0 -->
      <g transform="translate(84.89743 402.004279) scale(0.12 -0.12)">
       <use xlink:href="#DejaVuSans-30"/>
      </g>
     </g>
    </g>
    <g id="xtick_14">
     <g id="line2d_28">
      <g>
       <use xlink:href="#mbfabdaad50" x="158.097727" y="385.886154" style="stroke: #000000; stroke-width: 0.8"/>
      </g>
     </g>
     <g id="text_10">
      <!-- 5 -->
      <g transform="translate(154.280227 402.004279) scale(0.12 -0.12)">
       <use xlink:href="#DejaVuSans-35"/>
      </g>
     </g>
    </g>
    <g id="xtick_15">
     <g id="line2d_29">
      <g>
       <use xlink:href="#mbfabdaad50" x="227.480524" y="385.886154" style="stroke: #000000; stroke-width: 0.8"/>
      </g>
     </g>
     <g id="text_11">
      <!-- 10 -->
      <g transform="translate(219.845524 402.004279) scale(0.12 -0.12)">
       <use xlink:href="#DejaVuSans-31"/>
       <use xlink:href="#DejaVuSans-30" transform="translate(63.623047 0)"/>
      </g>
     </g>
    </g>
    <g id="xtick_16">
     <g id="line2d_30">
      <g>
       <use xlink:href="#mbfabdaad50" x="296.863322" y="385.886154" style="stroke: #000000; stroke-width: 0.8"/>
      </g>
     </g>
     <g id="text_12">
      <!-- 15 -->
      <g transform="translate(289.228322 402.004279) scale(0.12 -0.12)">
       <use xlink:href="#DejaVuSans-31"/>
       <use xlink:href="#DejaVuSans-35" transform="translate(63.623047 0)"/>
      </g>
     </g>
    </g>
    <g id="xtick_17">
     <g id="line2d_31">
      <g>
       <use xlink:href="#mbfabdaad50" x="366.246119" y="385.886154" style="stroke: #000000; stroke-width: 0.8"/>
      </g>
     </g>
     <g id="text_13">
      <!-- 20 -->
      <g transform="translate(358.611119 402.004279) scale(0.12 -0.12)">
       <use xlink:href="#DejaVuSans-32"/>
       <use xlink:href="#DejaVuSans-30" transform="translate(63.623047 0)"/>
      </g>
     </g>
    </g>
    <g id="xtick_18">
     <g id="line2d_32">
      <g>
       <use xlink:href="#mbfabdaad50" x="435.628916" y="385.886154" style="stroke: #000000; stroke-width: 0.8"/>
      </g>
     </g>
     <g id="text_14">
      <!-- 25 -->
      <g transform="translate(427.993916 402.004279) scale(0.12 -0.12)">
       <use xlink:href="#DejaVuSans-32"/>
       <use xlink:href="#DejaVuSans-35" transform="translate(63.623047 0)"/>
      </g>
     </g>
    </g>
    <g id="text_15">
     <!-- Time $t$ -->
     <g transform="translate(243.031923 417.618029) scale(0.12 -0.12)">
      <defs>
       <path id="DejaVuSans-Oblique-74" d="M 2706 3500 
L 2619 3053 
L 1472 3053 
L 1100 1153 
Q 1081 1047 1072 975 
Q 1063 903 1063 863 
Q 1063 663 1183 572 
Q 1303 481 1569 481 
L 2150 481 
L 2053 0 
L 1503 0 
Q 991 0 739 200 
Q 488 400 488 806 
Q 488 878 497 964 
Q 506 1050 525 1153 
L 897 3053 
L 409 3053 
L 500 3500 
L 978 3500 
L 1172 4494 
L 1747 4494 
L 1556 3500 
L 2706 3500 
z
" transform="scale(0.015625)"/>
      </defs>
      <use xlink:href="#DejaVuSans-54" transform="translate(0 0.015625)"/>
      <use xlink:href="#DejaVuSans-69" transform="translate(61.083984 0.015625)"/>
      <use xlink:href="#DejaVuSans-6d" transform="translate(88.867188 0.015625)"/>
      <use xlink:href="#DejaVuSans-65" transform="translate(186.279297 0.015625)"/>
      <use xlink:href="#DejaVuSans-20" transform="translate(247.802734 0.015625)"/>
      <use xlink:href="#DejaVuSans-Oblique-74" transform="translate(279.589844 0.015625)"/>
     </g>
    </g>
   </g>
   <g id="matplotlib.axis_6">
    <g id="ytick_11">
     <g id="line2d_33">
      <g>
       <use xlink:href="#me78964cb2c" x="71.369231" y="371.953743" style="stroke: #000000; stroke-width: 0.8"/>
      </g>
     </g>
     <g id="text_16">
      <!-- 0.000 -->
      <g transform="translate(30.015481 376.512806) scale(0.12 -0.12)">
       <use xlink:href="#DejaVuSans-30"/>
       <use xlink:href="#DejaVuSans-2e" transform="translate(63.623047 0)"/>
       <use xlink:href="#DejaVuSans-30" transform="translate(95.410156 0)"/>
       <use xlink:href="#DejaVuSans-30" transform="translate(159.033203 0)"/>
       <use xlink:href="#DejaVuSans-30" transform="translate(222.65625 0)"/>
      </g>
     </g>
    </g>
    <g id="ytick_12">
     <g id="line2d_34">
      <g>
       <use xlink:href="#me78964cb2c" x="71.369231" y="342.902781" style="stroke: #000000; stroke-width: 0.8"/>
      </g>
     </g>
     <g id="text_17">
      <!-- 0.025 -->
      <g transform="translate(30.015481 347.461843) scale(0.12 -0.12)">
       <use xlink:href="#DejaVuSans-30"/>
       <use xlink:href="#DejaVuSans-2e" transform="translate(63.623047 0)"/>
       <use xlink:href="#DejaVuSans-30" transform="translate(95.410156 0)"/>
       <use xlink:href="#DejaVuSans-32" transform="translate(159.033203 0)"/>
       <use xlink:href="#DejaVuSans-35" transform="translate(222.65625 0)"/>
      </g>
     </g>
    </g>
    <g id="ytick_13">
     <g id="line2d_35">
      <g>
       <use xlink:href="#me78964cb2c" x="71.369231" y="313.851818" style="stroke: #000000; stroke-width: 0.8"/>
      </g>
     </g>
     <g id="text_18">
      <!-- 0.050 -->
      <g transform="translate(30.015481 318.41088) scale(0.12 -0.12)">
       <use xlink:href="#DejaVuSans-30"/>
       <use xlink:href="#DejaVuSans-2e" transform="translate(63.623047 0)"/>
       <use xlink:href="#DejaVuSans-30" transform="translate(95.410156 0)"/>
       <use xlink:href="#DejaVuSans-35" transform="translate(159.033203 0)"/>
       <use xlink:href="#DejaVuSans-30" transform="translate(222.65625 0)"/>
      </g>
     </g>
    </g>
    <g id="ytick_14">
     <g id="line2d_36">
      <g>
       <use xlink:href="#me78964cb2c" x="71.369231" y="284.800855" style="stroke: #000000; stroke-width: 0.8"/>
      </g>
     </g>
     <g id="text_19">
      <!-- 0.075 -->
      <g transform="translate(30.015481 289.359918) scale(0.12 -0.12)">
       <use xlink:href="#DejaVuSans-30"/>
       <use xlink:href="#DejaVuSans-2e" transform="translate(63.623047 0)"/>
       <use xlink:href="#DejaVuSans-30" transform="translate(95.410156 0)"/>
       <use xlink:href="#DejaVuSans-37" transform="translate(159.033203 0)"/>
       <use xlink:href="#DejaVuSans-35" transform="translate(222.65625 0)"/>
      </g>
     </g>
    </g>
    <g id="ytick_15">
     <g id="line2d_37">
      <g>
       <use xlink:href="#me78964cb2c" x="71.369231" y="255.749892" style="stroke: #000000; stroke-width: 0.8"/>
      </g>
     </g>
     <g id="text_20">
      <!-- 0.100 -->
      <g transform="translate(30.015481 260.308955) scale(0.12 -0.12)">
       <use xlink:href="#DejaVuSans-30"/>
       <use xlink:href="#DejaVuSans-2e" transform="translate(63.623047 0)"/>
       <use xlink:href="#DejaVuSans-31" transform="translate(95.410156 0)"/>
       <use xlink:href="#DejaVuSans-30" transform="translate(159.033203 0)"/>
       <use xlink:href="#DejaVuSans-30" transform="translate(222.65625 0)"/>
      </g>
     </g>
    </g>
    <g id="text_21">
     <!-- $\lambda_{\min}$ -->
     <g transform="translate(23.519856 323.788077) rotate(-90) scale(0.12 -0.12)">
      <use xlink:href="#DejaVuSans-Oblique-3bb" transform="translate(0 0.015625)"/>
      <use xlink:href="#DejaVuSans-6d" transform="translate(59.179688 -16.390625) scale(0.7)"/>
      <use xlink:href="#DejaVuSans-69" transform="translate(127.368164 -16.390625) scale(0.7)"/>
      <use xlink:href="#DejaVuSans-6e" transform="translate(146.816406 -16.390625) scale(0.7)"/>
     </g>
    </g>
   </g>
   <g id="line2d_38">
    <path d="M 88.71493 371.953743 
L 91.610706 372.938584 
L 93.348172 373.361997 
L 95.085638 373.578158 
L 96.823103 373.547135 
L 98.560569 373.256715 
L 100.298035 372.722993 
L 102.614656 371.708103 
L 107.247898 369.243854 
L 109.564519 368.145745 
L 111.881139 367.319102 
L 113.618605 366.912995 
L 115.935226 366.644232 
L 118.831002 366.62409 
L 123.464244 366.683636 
L 125.780865 366.462804 
L 128.097486 365.962732 
L 130.414107 365.184937 
L 133.309883 363.937629 
L 137.36397 362.161117 
L 139.680591 361.411959 
L 141.418056 361.070472 
L 143.155522 360.945633 
L 144.892988 361.036068 
L 147.209609 361.444354 
L 150.105385 362.24265 
L 153.580316 363.204441 
L 155.896937 363.60006 
L 157.634403 363.685791 
L 159.371869 363.56626 
L 161.109334 363.244473 
L 163.425955 362.547529 
L 166.900887 361.16658 
L 170.375818 359.818552 
L 172.692439 359.153179 
L 175.00906 358.757946 
L 177.325681 358.633545 
L 180.221457 358.758634 
L 185.433854 359.087872 
L 187.750475 358.995663 
L 190.067096 358.660985 
L 192.383717 358.09035 
L 195.858649 356.947114 
L 199.912735 355.652614 
L 202.229356 355.169364 
L 203.966822 354.994091 
L 205.704288 354.991895 
L 208.020909 355.23791 
L 210.916685 355.831633 
L 216.129082 356.969615 
L 218.445703 357.203004 
L 220.762324 357.158612 
L 223.078945 356.830066 
L 225.395566 356.268101 
L 233.503739 353.990909 
L 235.82036 353.676973 
L 238.136981 353.5986 
L 241.032757 353.771984 
L 247.98262 354.398846 
L 250.299241 354.34492 
L 252.615862 354.079551 
L 255.511638 353.489685 
L 263.040656 351.739879 
L 265.357277 351.508212 
L 267.673898 351.515587 
L 269.990519 351.744486 
L 273.46545 352.354619 
L 277.519537 353.066012 
L 279.836158 353.281736 
L 282.152779 353.281861 
L 284.4694 353.057551 
L 287.365176 352.522892 
L 294.315039 351.041011 
L 296.63166 350.79051 
L 298.948281 350.739364 
L 301.844057 350.927109 
L 311.11054 351.83879 
L 313.427161 351.759959 
L 316.322938 351.420865 
L 320.956179 350.565219 
L 324.431111 350.005808 
L 327.326887 349.79029 
L 329.643508 349.826579 
L 332.539284 350.10423 
L 341.226613 351.21777 
L 344.122389 351.223517 
L 347.018165 350.962534 
L 351.072252 350.310752 
L 355.126338 349.68423 
L 358.022115 349.459557 
L 360.917891 349.494339 
L 363.813667 349.75903 
L 372.500995 350.744376 
L 375.396772 350.74014 
L 378.292548 350.509628 
L 388.717342 349.349306 
L 391.613118 349.390746 
L 395.08805 349.694865 
L 402.617068 350.472078 
L 405.512844 350.502001 
L 408.40862 350.323606 
L 413.041862 349.773186 
L 417.095949 349.350764 
L 419.991725 349.253994 
L 422.887501 349.376752 
L 426.362432 349.760874 
L 433.312295 350.617673 
L 435.628916 350.730727 
L 435.628916 350.730727 
" clip-path="url(#pa63ad6dea4)" style="fill: none; stroke: #d62728; stroke-width: 2; stroke-linecap: square"/>
   </g>
   <g id="line2d_39">
    <path d="M 71.369231 371.953743 
L 452.974615 371.953743 
" clip-path="url(#pa63ad6dea4)" style="fill: none; stroke-dasharray: 1,1.65; stroke-dashoffset: 0; stroke: #000000"/>
   </g>
   <g id="patch_13">
    <path d="M 71.369231 385.886154 
L 71.369231 238.41 
" style="fill: none; stroke: #000000; stroke-width: 0.8; stroke-linejoin: miter; stroke-linecap: square"/>
   </g>
   <g id="patch_14">
    <path d="M 452.974615 385.886154 
L 452.974615 238.41 
" style="fill: none; stroke: #000000; stroke-width: 0.8; stroke-linejoin: miter; stroke-linecap: square"/>
   </g>
   <g id="patch_15">
    <path d="M 71.369231 385.886154 
L 452.974615 385.886154 
" style="fill: none; stroke: #000000; stroke-width: 0.8; stroke-linejoin: miter; stroke-linecap: square"/>
   </g>
   <g id="patch_16">
    <path d="M 71.369231 238.41 
L 452.974615 238.41 
" style="fill: none; stroke: #000000; stroke-width: 0.8; stroke-linejoin: miter; stroke-linecap: square"/>
   </g>
   <g id="text_22">
    <!-- Ohmic: T=0.1, α=0.03 -->
    <g transform="translate(180.986298 232.41) scale(0.144 -0.144)">
     <defs>
      <path id="DejaVuSans-4f" d="M 2522 4238 
Q 1834 4238 1429 3725 
Q 1025 3213 1025 2328 
Q 1025 1447 1429 934 
Q 1834 422 2522 422 
Q 3209 422 3611 934 
Q 4013 1447 4013 2328 
Q 4013 3213 3611 3725 
Q 3209 4238 2522 4238 
z
M 2522 4750 
Q 3503 4750 4090 4092 
Q 4678 3434 4678 2328 
Q 4678 1225 4090 567 
Q 3503 -91 2522 -91 
Q 1538 -91 948 565 
Q 359 1222 359 2328 
Q 359 3434 948 4092 
Q 1538 4750 2522 4750 
z
" transform="scale(0.015625)"/>
      <path id="DejaVuSans-68" d="M 3513 2113 
L 3513 0 
L 2938 0 
L 2938 2094 
Q 2938 2591 2744 2837 
Q 2550 3084 2163 3084 
Q 1697 3084 1428 2787 
Q 1159 2491 1159 1978 
L 1159 0 
L 581 0 
L 581 4863 
L 1159 4863 
L 1159 2956 
Q 1366 3272 1645 3428 
Q 1925 3584 2291 3584 
Q 2894 3584 3203 3211 
Q 3513 2838 3513 2113 
z
" transform="scale(0.015625)"/>
      <path id="DejaVuSans-63" d="M 3122 3366 
L 3122 2828 
Q 2878 2963 2633 3030 
Q 2388 3097 2138 3097 
Q 1578 3097 1268 2742 
Q 959 2388 959 1747 
Q 959 1106 1268 751 
Q 1578 397 2138 397 
Q 2388 397 2633 464 
Q 2878 531 3122 666 
L 3122 134 
Q 2881 22 2623 -34 
Q 2366 -91 2075 -91 
Q 1284 -91 818 406 
Q 353 903 353 1747 
Q 353 2603 823 3093 
Q 1294 3584 2113 3584 
Q 2378 3584 2631 3529 
Q 2884 3475 3122 3366 
z
" transform="scale(0.015625)"/>
      <path id="DejaVuSans-3b1" d="M 2644 1628 
L 2506 2350 
Q 2366 3091 1809 3091 
Q 1391 3091 1200 2747 
Q 959 2316 959 1747 
Q 959 1059 1194 731 
Q 1431 397 1809 397 
Q 2228 397 2453 1063 
L 2644 1628 
z
M 2966 2584 
L 3275 3500 
L 3788 3500 
L 3147 1603 
L 3272 919 
Q 3300 766 3409 638 
Q 3538 488 3638 488 
L 3913 488 
L 3913 0 
L 3569 0 
Q 3275 0 3013 263 
Q 2884 394 2831 669 
Q 2688 322 2394 50 
Q 2256 -78 1809 -78 
Q 1075 -78 719 397 
Q 353 888 353 1747 
Q 353 2666 750 3097 
Q 1191 3578 1809 3578 
Q 2781 3578 2966 2584 
z
" transform="scale(0.015625)"/>
      <path id="DejaVuSans-33" d="M 2597 2516 
Q 3050 2419 3304 2112 
Q 3559 1806 3559 1356 
Q 3559 666 3084 287 
Q 2609 -91 1734 -91 
Q 1441 -91 1130 -33 
Q 819 25 488 141 
L 488 750 
Q 750 597 1062 519 
Q 1375 441 1716 441 
Q 2309 441 2620 675 
Q 2931 909 2931 1356 
Q 2931 1769 2642 2001 
Q 2353 2234 1838 2234 
L 1294 2234 
L 1294 2753 
L 1863 2753 
Q 2328 2753 2575 2939 
Q 2822 3125 2822 3475 
Q 2822 3834 2567 4026 
Q 2313 4219 1838 4219 
Q 1578 4219 1281 4162 
Q 984 4106 628 3988 
L 628 4550 
Q 988 4650 1302 4700 
Q 1616 4750 1894 4750 
Q 2613 4750 3031 4423 
Q 3450 4097 3450 3541 
Q 3450 3153 3228 2886 
Q 3006 2619 2597 2516 
z
" transform="scale(0.015625)"/>
     </defs>
     <use xlink:href="#DejaVuSans-4f"/>
     <use xlink:href="#DejaVuSans-68" transform="translate(78.710938 0)"/>
     <use xlink:href="#DejaVuSans-6d" transform="translate(142.089844 0)"/>
     <use xlink:href="#DejaVuSans-69" transform="translate(239.501953 0)"/>
     <use xlink:href="#DejaVuSans-63" transform="translate(267.285156 0)"/>
     <use xlink:href="#DejaVuSans-3a" transform="translate(322.265625 0)"/>
     <use xlink:href="#DejaVuSans-20" transform="translate(355.957031 0)"/>
     <use xlink:href="#DejaVuSans-54" transform="translate(387.744141 0)"/>
     <use xlink:href="#DejaVuSans-3d" transform="translate(448.828125 0)"/>
     <use xlink:href="#DejaVuSans-30" transform="translate(532.617188 0)"/>
     <use xlink:href="#DejaVuSans-2e" transform="translate(596.240234 0)"/>
     <use xlink:href="#DejaVuSans-31" transform="translate(628.027344 0)"/>
     <use xlink:href="#DejaVuSans-2c" transform="translate(691.650391 0)"/>
     <use xlink:href="#DejaVuSans-20" transform="translate(723.4375 0)"/>
     <use xlink:href="#DejaVuSans-3b1" transform="translate(755.224609 0)"/>
     <use xlink:href="#DejaVuSans-3d" transform="translate(821.142578 0)"/>
     <use xlink:href="#DejaVuSans-30" transform="translate(904.931641 0)"/>
     <use xlink:href="#DejaVuSans-2e" transform="translate(968.554688 0)"/>
     <use xlink:href="#DejaVuSans-30" transform="translate(1000.341797 0)"/>
     <use xlink:href="#DejaVuSans-33" transform="translate(1063.964844 0)"/>
    </g>
   </g>
  </g>
  <g id="axes_4">
   <g id="patch_17">
    <path d="M 469.434615 385.886154 
L 851.04 385.886154 
L 851.04 238.41 
L 469.434615 238.41 
L 469.434615 385.886154 
z
" style="fill: none"/>
   </g>
   <g id="matplotlib.axis_7">
    <g id="xtick_19">
     <g id="line2d_40">
      <g>
       <use xlink:href="#mbfabdaad50" x="486.780315" y="385.886154" style="stroke: #000000; stroke-width: 0.8"/>
      </g>
     </g>
     <g id="text_23">
      <!-- 0 -->
      <g transform="translate(482.962815 402.004279) scale(0.12 -0.12)">
       <use xlink:href="#DejaVuSans-30"/>
      </g>
     </g>
    </g>
    <g id="xtick_20">
     <g id="line2d_41">
      <g>
       <use xlink:href="#mbfabdaad50" x="556.163112" y="385.886154" style="stroke: #000000; stroke-width: 0.8"/>
      </g>
     </g>
     <g id="text_24">
      <!-- 5 -->
      <g transform="translate(552.345612 402.004279) scale(0.12 -0.12)">
       <use xlink:href="#DejaVuSans-35"/>
      </g>
     </g>
    </g>
    <g id="xtick_21">
     <g id="line2d_42">
      <g>
       <use xlink:href="#mbfabdaad50" x="625.545909" y="385.886154" style="stroke: #000000; stroke-width: 0.8"/>
      </g>
     </g>
     <g id="text_25">
      <!-- 10 -->
      <g transform="translate(617.910909 402.004279) scale(0.12 -0.12)">
       <use xlink:href="#DejaVuSans-31"/>
       <use xlink:href="#DejaVuSans-30" transform="translate(63.623047 0)"/>
      </g>
     </g>
    </g>
    <g id="xtick_22">
     <g id="line2d_43">
      <g>
       <use xlink:href="#mbfabdaad50" x="694.928706" y="385.886154" style="stroke: #000000; stroke-width: 0.8"/>
      </g>
     </g>
     <g id="text_26">
      <!-- 15 -->
      <g transform="translate(687.293706 402.004279) scale(0.12 -0.12)">
       <use xlink:href="#DejaVuSans-31"/>
       <use xlink:href="#DejaVuSans-35" transform="translate(63.623047 0)"/>
      </g>
     </g>
    </g>
    <g id="xtick_23">
     <g id="line2d_44">
      <g>
       <use xlink:href="#mbfabdaad50" x="764.311503" y="385.886154" style="stroke: #000000; stroke-width: 0.8"/>
      </g>
     </g>
     <g id="text_27">
      <!-- 20 -->
      <g transform="translate(756.676503 402.004279) scale(0.12 -0.12)">
       <use xlink:href="#DejaVuSans-32"/>
       <use xlink:href="#DejaVuSans-30" transform="translate(63.623047 0)"/>
      </g>
     </g>
    </g>
    <g id="xtick_24">
     <g id="line2d_45">
      <g>
       <use xlink:href="#mbfabdaad50" x="833.694301" y="385.886154" style="stroke: #000000; stroke-width: 0.8"/>
      </g>
     </g>
     <g id="text_28">
      <!-- 25 -->
      <g transform="translate(826.059301 402.004279) scale(0.12 -0.12)">
       <use xlink:href="#DejaVuSans-32"/>
       <use xlink:href="#DejaVuSans-35" transform="translate(63.623047 0)"/>
      </g>
     </g>
    </g>
    <g id="text_29">
     <!-- Time $t$ -->
     <g transform="translate(641.097308 417.618029) scale(0.12 -0.12)">
      <use xlink:href="#DejaVuSans-54" transform="translate(0 0.015625)"/>
      <use xlink:href="#DejaVuSans-69" transform="translate(61.083984 0.015625)"/>
      <use xlink:href="#DejaVuSans-6d" transform="translate(88.867188 0.015625)"/>
      <use xlink:href="#DejaVuSans-65" transform="translate(186.279297 0.015625)"/>
      <use xlink:href="#DejaVuSans-20" transform="translate(247.802734 0.015625)"/>
      <use xlink:href="#DejaVuSans-Oblique-74" transform="translate(279.589844 0.015625)"/>
     </g>
    </g>
   </g>
   <g id="matplotlib.axis_8">
    <g id="ytick_16">
     <g id="line2d_46">
      <g>
       <use xlink:href="#me78964cb2c" x="469.434615" y="371.953743" style="stroke: #000000; stroke-width: 0.8"/>
      </g>
     </g>
    </g>
    <g id="ytick_17">
     <g id="line2d_47">
      <g>
       <use xlink:href="#me78964cb2c" x="469.434615" y="342.902781" style="stroke: #000000; stroke-width: 0.8"/>
      </g>
     </g>
    </g>
    <g id="ytick_18">
     <g id="line2d_48">
      <g>
       <use xlink:href="#me78964cb2c" x="469.434615" y="313.851818" style="stroke: #000000; stroke-width: 0.8"/>
      </g>
     </g>
    </g>
    <g id="ytick_19">
     <g id="line2d_49">
      <g>
       <use xlink:href="#me78964cb2c" x="469.434615" y="284.800855" style="stroke: #000000; stroke-width: 0.8"/>
      </g>
     </g>
    </g>
    <g id="ytick_20">
     <g id="line2d_50">
      <g>
       <use xlink:href="#me78964cb2c" x="469.434615" y="255.749892" style="stroke: #000000; stroke-width: 0.8"/>
      </g>
     </g>
    </g>
   </g>
   <g id="line2d_51">
    <path d="M 486.780315 371.953743 
L 494.309333 344.191243 
L 501.259196 317.54909 
L 502.996661 311.749846 
L 504.734127 306.720447 
L 505.892437 303.882067 
L 507.050748 301.498704 
L 508.209058 299.590794 
L 509.367369 298.162522 
L 510.525679 297.201287 
L 511.68399 296.678397 
L 512.8423 296.550353 
L 514.000611 296.761619 
L 515.158921 297.24734 
L 516.896387 298.333764 
L 521.529629 301.608092 
L 522.687939 302.165722 
L 523.84625 302.52121 
L 525.00456 302.643395 
L 526.162871 302.512265 
L 527.321181 302.118489 
L 528.479492 301.462686 
L 529.637802 300.554436 
L 530.796113 299.411019 
L 532.533578 297.307682 
L 534.271044 294.825159 
L 536.587665 291.109228 
L 547.591614 272.753236 
L 551.645701 266.725775 
L 555.699788 261.116832 
L 558.595564 257.504026 
L 560.912185 255.008841 
L 562.649651 253.45721 
L 564.387116 252.242213 
L 565.545427 251.642758 
L 566.703737 251.223857 
L 567.862048 250.991553 
L 569.020358 250.947608 
L 570.178669 251.089079 
L 571.336979 251.40816 
L 573.074445 252.191701 
L 574.81191 253.287359 
L 577.128531 255.101655 
L 584.657549 261.415947 
L 586.395015 262.506194 
L 588.132481 263.348209 
L 589.869947 263.920252 
L 591.607412 264.217186 
L 593.344878 264.248122 
L 595.082344 264.033713 
L 596.819809 263.602765 
L 599.13643 262.749569 
L 601.453051 261.654577 
L 604.927983 259.729459 
L 614.773622 254.050488 
L 617.669398 252.686003 
L 619.986019 251.802837 
L 622.30264 251.154328 
L 624.619261 250.780917 
L 626.356726 250.699679 
L 628.094192 250.796458 
L 629.831658 251.071158 
L 632.148279 251.700637 
L 634.4649 252.595808 
L 637.360676 253.999659 
L 647.78547 259.461688 
L 650.102091 260.333294 
L 652.418712 260.986327 
L 654.735333 261.410492 
L 657.051954 261.611681 
L 659.368575 261.608812 
L 662.264351 261.361647 
L 665.739282 260.79662 
L 670.95168 259.656242 
L 677.322387 258.297116 
L 680.797319 257.779886 
L 683.693095 257.545929 
L 686.588871 257.524726 
L 689.484647 257.730298 
L 692.380423 258.156794 
L 695.855355 258.921397 
L 699.909441 260.056818 
L 709.175925 262.746703 
L 712.650856 263.499515 
L 716.125788 264.020252 
L 719.600719 264.298518 
L 723.075651 264.354909 
L 727.129737 264.199147 
L 733.500445 263.689291 
L 741.029463 263.12884 
L 745.662705 263.018092 
L 749.716792 263.134767 
L 753.770878 263.45653 
L 758.983275 264.118177 
L 775.199622 266.434499 
L 779.832864 266.777393 
L 785.045261 266.925244 
L 791.415969 266.847149 
L 807.05316 266.519356 
L 813.423867 266.69236 
L 820.37373 267.126703 
L 833.694301 268.173051 
L 833.694301 268.173051 
" clip-path="url(#p5313c910f4)" style="fill: none; stroke: #d62728; stroke-width: 2; stroke-linecap: square"/>
   </g>
   <g id="line2d_52">
    <path d="M 469.434615 371.953743 
L 851.04 371.953743 
" clip-path="url(#p5313c910f4)" style="fill: none; stroke-dasharray: 1,1.65; stroke-dashoffset: 0; stroke: #000000"/>
   </g>
   <g id="patch_18">
    <path d="M 469.434615 385.886154 
L 469.434615 238.41 
" style="fill: none; stroke: #000000; stroke-width: 0.8; stroke-linejoin: miter; stroke-linecap: square"/>
   </g>
   <g id="patch_19">
    <path d="M 851.04 385.886154 
L 851.04 238.41 
" style="fill: none; stroke: #000000; stroke-width: 0.8; stroke-linejoin: miter; stroke-linecap: square"/>
   </g>
   <g id="patch_20">
    <path d="M 469.434615 385.886154 
L 851.04 385.886154 
" style="fill: none; stroke: #000000; stroke-width: 0.8; stroke-linejoin: miter; stroke-linecap: square"/>
   </g>
   <g id="patch_21">
    <path d="M 469.434615 238.41 
L 851.04 238.41 
" style="fill: none; stroke: #000000; stroke-width: 0.8; stroke-linejoin: miter; stroke-linecap: square"/>
   </g>
   <g id="text_30">
    <!-- Ohmic: T=0.6, α=0.09 -->
    <g transform="translate(579.051683 232.41) scale(0.144 -0.144)">
     <defs>
      <path id="DejaVuSans-36" d="M 2113 2584 
Q 1688 2584 1439 2293 
Q 1191 2003 1191 1497 
Q 1191 994 1439 701 
Q 1688 409 2113 409 
Q 2538 409 2786 701 
Q 3034 994 3034 1497 
Q 3034 2003 2786 2293 
Q 2538 2584 2113 2584 
z
M 3366 4563 
L 3366 3988 
Q 3128 4100 2886 4159 
Q 2644 4219 2406 4219 
Q 1781 4219 1451 3797 
Q 1122 3375 1075 2522 
Q 1259 2794 1537 2939 
Q 1816 3084 2150 3084 
Q 2853 3084 3261 2657 
Q 3669 2231 3669 1497 
Q 3669 778 3244 343 
Q 2819 -91 2113 -91 
Q 1303 -91 875 529 
Q 447 1150 447 2328 
Q 447 3434 972 4092 
Q 1497 4750 2381 4750 
Q 2619 4750 2861 4703 
Q 3103 4656 3366 4563 
z
" transform="scale(0.015625)"/>
      <path id="DejaVuSans-39" d="M 703 97 
L 703 672 
Q 941 559 1184 500 
Q 1428 441 1663 441 
Q 2288 441 2617 861 
Q 2947 1281 2994 2138 
Q 2813 1869 2534 1725 
Q 2256 1581 1919 1581 
Q 1219 1581 811 2004 
Q 403 2428 403 3163 
Q 403 3881 828 4315 
Q 1253 4750 1959 4750 
Q 2769 4750 3195 4129 
Q 3622 3509 3622 2328 
Q 3622 1225 3098 567 
Q 2575 -91 1691 -91 
Q 1453 -91 1209 -44 
Q 966 3 703 97 
z
M 1959 2075 
Q 2384 2075 2632 2365 
Q 2881 2656 2881 3163 
Q 2881 3666 2632 3958 
Q 2384 4250 1959 4250 
Q 1534 4250 1286 3958 
Q 1038 3666 1038 3163 
Q 1038 2656 1286 2365 
Q 1534 2075 1959 2075 
z
" transform="scale(0.015625)"/>
     </defs>
     <use xlink:href="#DejaVuSans-4f"/>
     <use xlink:href="#DejaVuSans-68" transform="translate(78.710938 0)"/>
     <use xlink:href="#DejaVuSans-6d" transform="translate(142.089844 0)"/>
     <use xlink:href="#DejaVuSans-69" transform="translate(239.501953 0)"/>
     <use xlink:href="#DejaVuSans-63" transform="translate(267.285156 0)"/>
     <use xlink:href="#DejaVuSans-3a" transform="translate(322.265625 0)"/>
     <use xlink:href="#DejaVuSans-20" transform="translate(355.957031 0)"/>
     <use xlink:href="#DejaVuSans-54" transform="translate(387.744141 0)"/>
     <use xlink:href="#DejaVuSans-3d" transform="translate(448.828125 0)"/>
     <use xlink:href="#DejaVuSans-30" transform="translate(532.617188 0)"/>
     <use xlink:href="#DejaVuSans-2e" transform="translate(596.240234 0)"/>
     <use xlink:href="#DejaVuSans-36" transform="translate(628.027344 0)"/>
     <use xlink:href="#DejaVuSans-2c" transform="translate(691.650391 0)"/>
     <use xlink:href="#DejaVuSans-20" transform="translate(723.4375 0)"/>
     <use xlink:href="#DejaVuSans-3b1" transform="translate(755.224609 0)"/>
     <use xlink:href="#DejaVuSans-3d" transform="translate(821.142578 0)"/>
     <use xlink:href="#DejaVuSans-30" transform="translate(904.931641 0)"/>
     <use xlink:href="#DejaVuSans-2e" transform="translate(968.554688 0)"/>
     <use xlink:href="#DejaVuSans-30" transform="translate(1000.341797 0)"/>
     <use xlink:href="#DejaVuSans-39" transform="translate(1063.964844 0)"/>
    </g>
   </g>
  </g>
  <g id="text_31">
   <!-- Minimal eigenvalue diagnostics -->
   <g transform="translate(318.754125 2.30175) scale(0.144 -0.144)">
    <defs>
     <path id="DejaVuSans-4d" d="M 628 4666 
L 1569 4666 
L 2759 1491 
L 3956 4666 
L 4897 4666 
L 4897 0 
L 4281 0 
L 4281 4097 
L 3078 897 
L 2444 897 
L 1241 4097 
L 1241 0 
L 628 0 
L 628 4666 
z
" transform="scale(0.015625)"/>
     <path id="DejaVuSans-61" d="M 2194 1759 
Q 1497 1759 1228 1600 
Q 959 1441 959 1056 
Q 959 750 1161 570 
Q 1363 391 1709 391 
Q 2188 391 2477 730 
Q 2766 1069 2766 1631 
L 2766 1759 
L 2194 1759 
z
M 3341 1997 
L 3341 0 
L 2766 0 
L 2766 531 
Q 2569 213 2275 61 
Q 1981 -91 1556 -91 
Q 1019 -91 701 211 
Q 384 513 384 1019 
Q 384 1609 779 1909 
Q 1175 2209 1959 2209 
L 2766 2209 
L 2766 2266 
Q 2766 2663 2505 2880 
Q 2244 3097 1772 3097 
Q 1472 3097 1187 3025 
Q 903 2953 641 2809 
L 641 3341 
Q 956 3463 1253 3523 
Q 1550 3584 1831 3584 
Q 2591 3584 2966 3190 
Q 3341 2797 3341 1997 
z
" transform="scale(0.015625)"/>
     <path id="DejaVuSans-6c" d="M 603 4863 
L 1178 4863 
L 1178 0 
L 603 0 
L 603 4863 
z
" transform="scale(0.015625)"/>
     <path id="DejaVuSans-67" d="M 2906 1791 
Q 2906 2416 2648 2759 
Q 2391 3103 1925 3103 
Q 1463 3103 1205 2759 
Q 947 2416 947 1791 
Q 947 1169 1205 825 
Q 1463 481 1925 481 
Q 2391 481 2648 825 
Q 2906 1169 2906 1791 
z
M 3481 434 
Q 3481 -459 3084 -895 
Q 2688 -1331 1869 -1331 
Q 1566 -1331 1297 -1286 
Q 1028 -1241 775 -1147 
L 775 -588 
Q 1028 -725 1275 -790 
Q 1522 -856 1778 -856 
Q 2344 -856 2625 -561 
Q 2906 -266 2906 331 
L 2906 616 
Q 2728 306 2450 153 
Q 2172 0 1784 0 
Q 1141 0 747 490 
Q 353 981 353 1791 
Q 353 2603 747 3093 
Q 1141 3584 1784 3584 
Q 2172 3584 2450 3431 
Q 2728 3278 2906 2969 
L 2906 3500 
L 3481 3500 
L 3481 434 
z
" transform="scale(0.015625)"/>
     <path id="DejaVuSans-76" d="M 191 3500 
L 800 3500 
L 1894 563 
L 2988 3500 
L 3597 3500 
L 2284 0 
L 1503 0 
L 191 3500 
z
" transform="scale(0.015625)"/>
     <path id="DejaVuSans-73" d="M 2834 3397 
L 2834 2853 
Q 2591 2978 2328 3040 
Q 2066 3103 1784 3103 
Q 1356 3103 1142 2972 
Q 928 2841 928 2578 
Q 928 2378 1081 2264 
Q 1234 2150 1697 2047 
L 1894 2003 
Q 2506 1872 2764 1633 
Q 3022 1394 3022 966 
Q 3022 478 2636 193 
Q 2250 -91 1575 -91 
Q 1294 -91 989 -36 
Q 684 19 347 128 
L 347 722 
Q 666 556 975 473 
Q 1284 391 1588 391 
Q 1994 391 2212 530 
Q 2431 669 2431 922 
Q 2431 1156 2273 1281 
Q 2116 1406 1581 1522 
L 1381 1569 
Q 847 1681 609 1914 
Q 372 2147 372 2553 
Q 372 3047 722 3315 
Q 1072 3584 1716 3584 
Q 2034 3584 2315 3537 
Q 2597 3491 2834 3397 
z
" transform="scale(0.015625)"/>
    </defs>
    <use xlink:href="#DejaVuSans-4d"/>
    <use xlink:href="#DejaVuSans-69" transform="translate(86.279297 0)"/>
    <use xlink:href="#DejaVuSans-6e" transform="translate(114.0625 0)"/>
    <use xlink:href="#DejaVuSans-69" transform="translate(177.441406 0)"/>
    <use xlink:href="#DejaVuSans-6d" transform="translate(205.224609 0)"/>
    <use xlink:href="#DejaVuSans-61" transform="translate(302.636719 0)"/>
    <use xlink:href="#DejaVuSans-6c" transform="translate(363.916016 0)"/>
    <use xlink:href="#DejaVuSans-20" transform="translate(391.699219 0)"/>
    <use xlink:href="#DejaVuSans-65" transform="translate(423.486328 0)"/>
    <use xlink:href="#DejaVuSans-69" transform="translate(485.009766 0)"/>
    <use xlink:href="#DejaVuSans-67" transform="translate(512.792969 0)"/>
    <use xlink:href="#DejaVuSans-65" transform="translate(576.269531 0)"/>
    <use xlink:href="#DejaVuSans-6e" transform="translate(637.792969 0)"/>
    <use xlink:href="#DejaVuSans-76" transform="translate(701.171875 0)"/>
    <use xlink:href="#DejaVuSans-61" transform="translate(760.351562 0)"/>
    <use xlink:href="#DejaVuSans-6c" transform="translate(821.630859 0)"/>
    <use xlink:href="#DejaVuSans-75" transform="translate(849.414062 0)"/>
    <use xlink:href="#DejaVuSans-65" transform="translate(912.792969 0)"/>
    <use xlink:href="#DejaVuSans-20" transform="translate(974.316406 0)"/>
    <use xlink:href="#DejaVuSans-64" transform="translate(1006.103516 0)"/>
    <use xlink:href="#DejaVuSans-69" transform="translate(1069.580078 0)"/>
    <use xlink:href="#DejaVuSans-61" transform="translate(1097.363281 0)"/>
    <use xlink:href="#DejaVuSans-67" transform="translate(1158.642578 0)"/>
    <use xlink:href="#DejaVuSans-6e" transform="translate(1222.119141 0)"/>
    <use xlink:href="#DejaVuSans-6f" transform="translate(1285.498047 0)"/>
    <use xlink:href="#DejaVuSans-73" transform="translate(1346.679688 0)"/>
    <use xlink:href="#DejaVuSans-74" transform="translate(1398.779297 0)"/>
    <use xlink:href="#DejaVuSans-69" transform="translate(1437.988281 0)"/>
    <use xlink:href="#DejaVuSans-63" transform="translate(1465.771484 0)"/>
    <use xlink:href="#DejaVuSans-73" transform="translate(1520.751953 0)"/>
   </g>
  </g>
 </g>
 <defs>
  <clipPath id="p11aefe8f84">
   <rect x="71.369231" y="57.396923" width="381.605385" height="147.476154"/>
  </clipPath>
  <clipPath id="pe5da08f37f">
   <rect x="469.434615" y="57.396923" width="381.605385" height="147.476154"/>
  </clipPath>
  <clipPath id="pa63ad6dea4">
   <rect x="71.369231" y="238.41" width="381.605385" height="147.476154"/>
  </clipPath>
  <clipPath id="p5313c910f4">
   <rect x="469.434615" y="238.41" width="381.605385" height="147.476154"/>
  </clipPath>
 </defs>
</svg>
